M48
;Layer_Color=9474304
;FILE_FORMAT=4:4
METRIC,LZ
;TYPE=PLATED
T1F00S00C0.2000
T2F00S00C0.3000
T3F00S00C0.8000
T4F00S00C1.0000
T5F00S00C1.3000
T6F00S00C1.5000
T7F00S00C3.0000
T8F00S00C4.0000
%
T01
X002739Y001668
X002849
Y001778
X002739
Y001888
X002849
T02
X0020868Y0040628
X0020106Y0044184
X00229Y0045454
X002544Y004266
X0025694Y004901
X0020868Y0049264
X002417Y005409
X0044204Y0048756
X0047506Y004774
X00488776Y00483496
X004903Y0046216
X00503Y0046724
X0050554Y0045454
X0050046Y0044438
X00493955Y0042926
X0048268Y0041136
X0051062Y0040628
Y0037834
X0048903Y0035802
X004649Y0037326
X0044966Y0040882
X0043696
X0046236Y0043168
Y0044946
X0051316Y004774
X0052586Y0047994
X0054618Y0048756
X005665Y0048248
X0057666Y0044184
Y004012
X0054237Y004139
X005284Y0042152
X005411Y0045454
X0054364Y0034786
X0054264Y0063486
X0048803Y0064502
X0019598Y005536
X0018328Y0050788
X0013756Y0046978
X0012486
X0008422Y0045454
Y004393
X0007406Y0043168
Y0044692
Y0049772
X0008422Y0050788
X0004358Y0049518
X0009438Y0055868
X0010454Y0055106
X0007025Y0062091
X000889Y0081226
X0011303Y0079702
X0013462Y0081734
Y0084528
X0010668Y0085036
X00117955Y0086826
X0012446Y0088338
X0012954Y0089354
X00127Y0090624
X001143Y0090116
X00112776Y00922496
X0009906Y009164
X0013716
X0014986Y0091894
X0017018Y0092656
X001905Y0092148
X001651Y0089354
X0016637Y008529
X001524Y0086052
X0008636Y0087068
Y0088846
X0007366Y0084782
X0006096
X0006604Y0092656
X0016764Y0078686
X0020066Y008402
Y0088084
X0044104Y0077456
X0047406Y007644
X00487776Y00770496
X004893Y0074916
X00502Y0075424
X0050454Y0074154
X0049946Y0073138
X00492955Y0071626
X0048168Y0069836
X0050962Y0069328
Y0066534
X004639Y0066026
X0044866Y0069582
X0043596
X0046136Y0071868
Y0073646
X0051216Y007644
X0052486Y0076694
X0054518Y0077456
X005655Y0076948
X0057566Y0072884
Y006882
X0054137Y007009
X005274Y0070852
X005401Y0074154
T03
X002055Y003685
X002255
X002455Y003685
Y003885
X002255
X002055
X001855
X001655
Y003685
X001855
X0005215Y0043835
X0003215
Y0045835
X0005215
Y005209
X0003215
Y005409
X0005215
T04
X006173Y003885
Y004139
Y004393
Y004647
Y004901
Y005155
Y005409
Y005663
X004014
Y005409
Y005155
Y004901
Y004647
Y004393
Y004139
Y003885
X003306Y006044
Y006298
X003052
X002798
X002544
Y006044
X00229
Y006298
X002036
Y006044
X002798
X003052
X001782
Y006298
X001528
Y006044
Y006933
Y007187
X001274
Y006933
X00102
Y007187
X000766
Y006933
X000512
Y007187
X001782
Y006933
X000254Y008275
Y008529
Y008783
Y009037
Y009291
Y009545
Y009799
Y010053
X002413
Y009799
Y009545
Y009291
Y009037
Y008783
Y008529
Y008275
X00229Y007187
X002036
Y006933
X00229
X002544
Y007187
X002798
X003052
X003306
Y006933
X003052
X002798
X004004Y007009
Y007263
Y007517
Y007771
Y008025
Y008279
Y008533
Y006755
X006163
Y007009
Y007263
Y007517
Y007771
Y008025
Y008279
Y008533
T05
X000663Y0011995
Y0017075
X00148Y000635
X002032
X00254
X0059462Y0018472
Y0023552
X0059716Y0011614
Y0006534
T06
X006173Y003504
X006163Y006374
X004004
X004014Y003504
X000254Y007894
X002413
T07
X0003Y0003
X0065606
Y002748
X0003
T08
X003052Y003758
X000512
M30
